<?xml version="1.0" standalone="no"?>
<!DOCTYPE svg PUBLIC "-//W3C//DTD SVG 20010904//EN"
 "http://www.w3.org/TR/2001/REC-SVG-20010904/DTD/svg10.dtd">
<svg version="1.0" xmlns="http://www.w3.org/2000/svg"
 width="500" height="500" viewBox="0 0 5000.000000 5000.000000"
 preserveAspectRatio="xMidYMid meet">

<g transform="translate(0.000000,5000.000000) scale(0.100000,-0.100000)"
fill="#000000" stroke="none">
<path d="M24240 43711 c-236 -8 -344 -14 -790 -47 -479 -35 -1270 -127 -1505
-174 -27 -6 -117 -21 -200 -35 -82 -14 -184 -31 -225 -39 -41 -8 -102 -19
-135 -26 -33 -6 -90 -17 -126 -25 -37 -8 -77 -15 -90 -15 -12 0 -45 -6 -73
-14 -28 -8 -87 -22 -131 -31 -44 -9 -98 -21 -119 -27 -21 -5 -60 -13 -85 -18
-93 -16 -636 -150 -791 -195 -25 -7 -74 -20 -110 -30 -36 -10 -83 -23 -105
-30 -47 -15 -117 -36 -200 -60 -33 -10 -78 -24 -100 -30 -22 -7 -67 -20 -100
-30 -33 -9 -76 -23 -95 -30 -19 -7 -62 -20 -95 -30 -33 -9 -70 -21 -83 -26
-13 -5 -83 -29 -155 -54 -73 -24 -190 -65 -262 -90 -71 -26 -141 -50 -155 -55
-30 -9 -206 -74 -275 -102 -27 -11 -66 -26 -85 -33 -53 -20 -334 -133 -385
-155 -11 -5 -112 -48 -225 -95 -113 -48 -225 -96 -250 -108 -288 -129 -400
-182 -720 -341 -230 -115 -510 -261 -660 -344 -25 -13 -72 -39 -105 -57 -33
-18 -100 -56 -150 -85 -49 -29 -110 -64 -135 -78 -39 -22 -419 -250 -485 -292
-13 -8 -52 -33 -87 -54 -270 -168 -777 -512 -1023 -693 -60 -45 -158 -117
-216 -160 -155 -114 -291 -219 -490 -378 -155 -124 -236 -191 -490 -405 -145
-122 -385 -337 -619 -554 -227 -212 -734 -722 -915 -921 -55 -60 -134 -146
-175 -190 -42 -44 -116 -127 -165 -184 -109 -126 -292 -339 -344 -401 -68 -81
-336 -414 -378 -470 -23 -30 -97 -128 -165 -217 -191 -252 -242 -322 -403
-553 -137 -195 -371 -545 -481 -718 -49 -78 -381 -628 -414 -687 -325 -577
-553 -1017 -768 -1485 -67 -146 -83 -182 -132 -295 -26 -60 -59 -135 -72 -165
-14 -30 -39 -91 -58 -135 -18 -44 -38 -93 -45 -110 -30 -69 -35 -83 -60 -145
-14 -36 -30 -74 -35 -85 -22 -51 -155 -401 -200 -530 -16 -44 -52 -145 -80
-225 -28 -80 -55 -158 -60 -175 -8 -28 -16 -53 -45 -135 -7 -19 -21 -62 -30
-95 -10 -33 -23 -76 -30 -95 -68 -193 -225 -744 -214 -754 9 -9 681 -8 689 1
12 13 41 106 85 268 9 33 23 75 31 93 8 18 14 43 14 55 1 12 7 33 15 47 8 14
14 34 15 45 0 11 7 33 15 49 8 15 15 35 15 43 0 8 6 29 14 46 7 18 31 88 54
157 22 69 68 204 102 300 34 96 65 186 70 200 5 14 18 50 30 80 12 30 25 66
30 80 5 14 18 50 30 80 12 30 26 69 32 85 6 17 15 34 19 39 5 6 9 17 9 25 0 9
6 27 13 41 7 14 21 48 31 75 10 28 24 64 32 80 7 17 43 102 79 190 37 88 73
174 80 190 8 17 23 53 36 80 12 28 33 75 46 105 13 30 31 71 40 90 129 295
489 1013 639 1273 19 32 34 60 34 62 0 3 20 39 45 81 25 41 45 77 45 80 0 7
369 618 454 751 417 653 936 1360 1411 1918 55 65 116 137 135 160 19 24 81
94 136 156 56 63 133 149 170 191 231 258 681 719 929 951 77 72 181 169 230
216 124 118 330 299 614 540 389 329 901 722 1281 982 36 24 67 46 70 49 10
10 116 82 230 157 286 189 399 261 475 306 11 7 45 28 75 48 30 19 143 87 250
151 265 157 256 152 335 196 167 93 164 92 335 185 146 79 266 141 480 247
124 62 232 116 240 121 8 5 22 12 30 15 8 3 56 26 105 49 85 41 112 53 260
120 33 14 80 36 105 47 25 11 70 31 100 45 30 13 64 28 75 33 11 5 88 37 170
70 83 34 203 83 267 111 64 27 121 49 127 49 6 0 19 4 29 10 30 17 111 50 121
50 9 0 29 8 106 42 11 4 34 12 50 17 17 5 55 19 85 31 30 12 64 24 75 27 11 2
29 9 40 14 11 5 61 22 110 39 202 68 574 191 625 207 30 9 73 22 95 29 22 7
67 20 100 29 33 9 77 23 98 31 20 8 46 14 56 14 10 0 32 7 47 15 16 8 39 15
50 15 12 0 38 7 57 15 20 8 48 15 61 15 14 0 40 6 58 14 35 15 97 32 163 46
22 4 54 13 70 18 115 40 1106 254 1320 286 78 11 176 29 236 42 37 8 83 14
102 14 20 0 62 7 94 15 31 8 78 15 104 15 26 0 60 5 74 10 15 6 71 15 124 20
53 5 132 14 176 20 323 44 686 79 1045 100 96 5 229 15 295 21 181 16 1263 23
1580 10 422 -18 889 -49 1185 -80 196 -21 375 -42 440 -52 36 -6 106 -14 156
-19 50 -4 106 -12 125 -18 19 -6 69 -13 112 -16 43 -3 86 -10 97 -16 10 -5 37
-10 60 -10 23 0 72 -7 109 -15 59 -13 154 -29 236 -41 46 -7 253 -46 465 -89
109 -23 190 -40 345 -75 130 -29 448 -105 530 -127 33 -9 85 -22 115 -30 30
-8 75 -21 100 -29 25 -8 53 -14 63 -14 11 0 33 -6 50 -14 34 -14 95 -31 167
-47 24 -5 49 -14 54 -19 6 -6 21 -10 36 -10 14 0 38 -7 54 -15 15 -8 37 -15
47 -15 10 0 36 -6 56 -14 21 -7 90 -30 153 -50 260 -82 633 -207 675 -226 11
-5 47 -18 80 -29 33 -11 85 -30 115 -41 30 -12 66 -25 80 -30 14 -4 36 -12 50
-18 14 -6 68 -27 120 -47 52 -20 104 -40 115 -45 11 -5 45 -19 75 -31 30 -11
69 -27 85 -34 17 -8 82 -35 145 -60 63 -26 129 -53 146 -60 16 -8 82 -36 145
-63 63 -27 143 -63 179 -80 117 -54 223 -103 320 -149 140 -66 550 -271 665
-333 55 -30 130 -70 167 -89 100 -54 159 -86 198 -109 19 -11 53 -30 75 -42
117 -64 151 -84 165 -94 8 -6 24 -16 35 -22 27 -14 461 -275 490 -294 13 -8
45 -28 72 -44 80 -49 591 -388 698 -464 246 -173 319 -226 513 -372 219 -165
241 -181 495 -385 180 -144 433 -357 571 -480 49 -44 112 -100 140 -123 114
-98 446 -411 679 -642 618 -610 1171 -1244 1748 -2005 58 -77 122 -162 141
-190 19 -27 82 -116 140 -197 101 -141 286 -411 358 -522 40 -62 121 -189 197
-309 62 -97 329 -540 368 -612 16 -27 67 -120 115 -205 48 -85 90 -162 94
-170 3 -8 22 -42 40 -75 103 -182 340 -656 476 -950 18 -38 47 -102 66 -142
18 -40 44 -98 58 -130 13 -32 31 -71 40 -88 9 -16 16 -33 16 -37 0 -4 11 -31
24 -60 14 -29 41 -93 61 -143 20 -49 40 -99 45 -110 5 -11 25 -60 45 -110 20
-49 40 -99 45 -110 12 -26 72 -186 95 -250 10 -27 23 -63 30 -80 7 -16 27 -70
45 -120 18 -49 36 -99 41 -110 37 -85 268 -797 334 -1030 22 -78 46 -148 55
-158 4 -5 108 -7 231 -6 123 2 274 3 336 4 61 0 114 3 118 6 3 4 -4 44 -16 90
-11 46 -25 100 -29 119 -4 19 -13 51 -20 70 -27 81 -32 97 -40 130 -4 19 -12
46 -17 60 -6 14 -18 50 -26 80 -46 156 -195 612 -266 810 -68 191 -92 256
-100 275 -5 11 -23 58 -41 105 -64 171 -153 399 -170 435 -5 11 -52 124 -106
250 -53 127 -114 267 -135 313 -22 45 -39 84 -39 86 0 2 -21 48 -46 103 -25
54 -59 127 -76 163 -41 88 -347 700 -388 775 -90 165 -105 193 -127 230 -12
22 -29 54 -37 70 -8 17 -29 54 -46 84 -17 29 -58 101 -92 160 -82 143 -273
464 -313 526 -18 28 -63 100 -101 160 -207 334 -618 929 -864 1250 -25 33 -91
119 -145 190 -626 820 -1441 1703 -2260 2446 -184 168 -240 215 -581 504 -307
260 -838 669 -1179 908 -199 140 -706 481 -740 497 -11 6 -65 39 -120 74 -97
63 -444 274 -515 314 -19 10 -86 49 -149 86 -62 36 -115 66 -117 66 -2 0 -27
14 -56 31 -128 76 -460 251 -757 399 -241 121 -488 240 -495 240 -2 0 -56 25
-120 55 -64 30 -118 55 -121 55 -4 0 -27 10 -53 21 -97 45 -421 182 -531 226
-63 25 -122 49 -130 53 -15 7 -35 15 -141 55 -22 8 -58 22 -80 30 -43 16 -71
27 -195 74 -114 44 -301 109 -520 181 -104 35 -204 69 -222 77 -17 7 -38 13
-47 13 -8 0 -30 6 -48 14 -29 13 -126 43 -298 93 -30 8 -73 21 -95 28 -124 40
-445 127 -685 185 -91 22 -190 47 -220 55 -30 8 -84 21 -120 29 -36 8 -87 20
-115 26 -27 6 -72 15 -100 20 -27 4 -63 13 -78 19 -16 6 -40 11 -54 11 -15 0
-49 6 -77 14 -28 8 -80 20 -116 26 -36 6 -99 18 -140 26 -362 70 -863 150
-1180 188 -467 57 -764 83 -1360 121 -272 18 -1299 27 -1680 16z"/>
<path d="M24989 41463 c-119 -192 -439 -729 -439 -738 0 -2 -15 -30 -34 -62
-33 -57 -58 -103 -158 -288 -72 -133 -337 -664 -392 -785 -27 -58 -56 -122
-66 -142 -11 -23 -14 -40 -9 -44 6 -3 47 -1 92 6 45 6 203 14 350 18 l269 7
58 110 c32 61 75 142 97 180 l38 70 170 0 c253 0 872 -25 961 -39 l78 -12 22
-44 c13 -25 32 -67 44 -95 12 -27 25 -59 30 -70 5 -11 20 -47 34 -80 27 -66
34 -70 141 -79 28 -3 100 -10 160 -16 61 -7 124 -13 140 -15 126 -13 228 -27
273 -37 28 -6 54 -9 57 -6 5 5 -31 116 -60 183 -7 17 -23 59 -36 95 -12 36
-26 69 -31 75 -4 5 -8 16 -8 25 0 8 -6 26 -13 40 -7 14 -21 48 -31 75 -10 28
-24 64 -32 80 -7 17 -24 59 -39 95 -14 36 -30 74 -35 85 -5 11 -18 43 -30 70
-12 28 -28 64 -36 82 -8 17 -14 34 -14 37 0 3 -15 38 -34 78 -18 40 -41 91
-51 113 -9 22 -30 67 -45 100 -15 33 -40 87 -55 120 -85 187 -321 664 -403
815 -31 57 -47 76 -68 83 -39 11 -405 26 -635 27 l-186 0 -74 -117z m511 -569
c25 -49 64 -130 87 -179 23 -50 65 -139 92 -198 28 -60 51 -110 51 -112 0 -2
15 -36 34 -77 19 -40 38 -86 42 -102 l7 -29 -89 6 c-49 4 -229 12 -401 18
l-311 12 13 21 c7 12 35 64 62 116 53 102 192 350 289 517 32 57 64 101 69
100 6 -2 30 -43 55 -93z"/>
<path d="M21549 41216 c-3 -4 -57 -13 -120 -21 -63 -8 -143 -21 -179 -29 -36
-8 -99 -23 -140 -32 -41 -9 -79 -20 -85 -24 -5 -5 -27 -11 -48 -15 -20 -4 -40
-11 -43 -16 -3 -5 -13 -9 -22 -9 -9 -1 -35 -9 -57 -20 -22 -11 -44 -19 -48
-20 -16 0 -176 -77 -247 -117 -50 -29 -143 -86 -155 -95 -5 -5 -44 -34 -85
-64 -102 -75 -208 -182 -285 -284 -93 -125 -124 -187 -186 -375 -15 -47 -22
-224 -11 -285 22 -117 33 -152 80 -250 83 -172 249 -326 457 -424 44 -21 87
-41 96 -46 9 -5 33 -12 53 -15 20 -4 39 -11 42 -16 3 -5 10 -7 15 -4 5 4 15 3
22 -2 12 -8 83 -24 197 -44 86 -16 483 -16 585 0 90 13 98 15 175 31 30 7 62
12 70 12 8 1 20 4 25 8 6 4 31 11 57 14 26 4 50 11 53 15 2 5 25 12 50 15 24
4 47 11 50 15 2 5 20 12 39 15 20 4 48 13 63 21 15 8 35 15 44 15 9 0 19 3 23
8 4 4 11 7 14 8 4 0 20 6 35 12 16 7 31 12 33 12 3 0 29 11 57 24 102 47 146
66 156 66 5 0 11 3 13 8 2 4 39 25 83 47 101 49 199 106 203 117 2 4 8 8 14 8
5 0 25 12 45 27 30 23 34 31 29 57 -3 17 -12 74 -20 126 -24 150 -46 292 -51
325 -2 17 -10 62 -16 100 -6 39 -13 81 -15 95 -5 43 -15 104 -20 129 -4 21 -9
22 -37 16 -18 -4 -43 -9 -57 -10 -49 -7 -216 -35 -300 -51 -47 -9 -116 -22
-155 -29 -105 -19 -104 -18 -93 -73 17 -80 17 -85 33 -164 24 -126 43 -220 54
-268 6 -25 10 -48 11 -51 0 -13 -207 -130 -266 -149 -20 -7 -48 -18 -62 -26
-15 -8 -34 -14 -42 -14 -9 0 -20 -4 -25 -9 -11 -9 -87 -26 -200 -42 -121 -18
-334 1 -430 40 -197 79 -320 193 -388 361 -28 67 -35 243 -12 312 72 224 251
395 530 508 107 43 295 75 445 75 157 0 380 -37 451 -75 9 -5 32 -12 51 -15
30 -6 37 -3 58 26 14 18 59 72 100 119 41 48 111 129 155 179 44 51 81 98 83
105 2 7 -24 19 -65 29 -37 10 -86 23 -108 28 -144 38 -266 51 -520 56 -138 2
-253 2 -256 -1z"/>
<path d="M28552 41118 c-6 -29 -18 -82 -26 -118 -8 -36 -24 -105 -36 -155 -11
-49 -27 -119 -35 -155 -9 -36 -22 -93 -30 -128 -8 -34 -21 -90 -29 -125 -8
-34 -24 -102 -35 -152 -11 -49 -27 -117 -34 -150 -8 -33 -22 -94 -32 -135 -9
-41 -24 -102 -32 -135 -14 -59 -29 -124 -57 -248 -8 -34 -17 -73 -20 -87 -6
-22 -11 -47 -31 -135 -2 -11 -11 -50 -20 -87 -8 -38 -21 -96 -29 -130 -7 -35
-15 -70 -17 -78 -5 -17 43 -31 306 -90 28 -6 59 -15 70 -20 11 -5 40 -13 65
-19 61 -13 132 -32 150 -39 8 -3 22 -7 30 -8 8 -1 40 -10 70 -19 30 -9 75 -21
100 -27 25 -6 50 -14 55 -18 6 -4 27 -11 49 -14 21 -4 46 -11 55 -16 9 -5 50
-18 91 -30 41 -12 82 -25 90 -29 9 -5 31 -12 50 -16 19 -4 40 -10 45 -13 6 -4
15 -7 20 -8 17 -3 169 -55 185 -63 9 -5 30 -12 49 -16 18 -4 44 -13 59 -21 15
-8 34 -14 43 -14 9 0 19 -3 23 -7 4 -5 11 -8 14 -9 9 -1 39 -12 78 -30 17 -7
46 -15 65 -16 32 -3 34 -1 54 54 11 31 24 60 28 64 4 4 7 14 7 23 0 9 7 29 15
45 8 15 15 33 15 40 1 6 9 29 20 51 11 22 19 47 20 56 0 8 5 20 11 26 22 22 1
38 -92 71 -52 19 -102 38 -111 43 -10 5 -23 9 -30 9 -7 0 -25 6 -40 14 -15 8
-42 17 -60 21 -18 4 -37 11 -43 15 -5 4 -32 13 -60 20 -27 7 -54 16 -60 20 -5
4 -26 11 -45 15 -19 4 -39 11 -45 15 -5 4 -26 11 -45 15 -19 4 -41 11 -50 16
-8 4 -49 17 -90 29 -41 12 -82 25 -91 29 -8 5 -42 14 -75 21 -32 7 -63 16 -69
20 -5 4 -29 11 -52 15 -57 9 -78 26 -65 51 6 10 15 38 21 62 27 107 33 128 42
147 4 11 15 47 23 80 8 33 22 85 31 115 9 30 22 78 29 105 14 50 53 188 80
280 8 28 25 84 36 125 12 41 25 86 30 100 5 14 12 41 16 60 3 19 10 41 15 50
4 8 13 35 19 60 25 99 90 328 116 411 5 15 -11 25 -56 35 -46 9 -107 26 -120
33 -9 5 -36 12 -60 16 -24 4 -51 11 -60 16 -8 4 -37 13 -65 19 -27 6 -76 18
-107 26 -202 50 -299 73 -314 74 -6 0 -16 -24 -22 -52z"/>
<path d="M18140 40107 c-237 -108 -768 -373 -915 -457 -22 -13 -72 -40 -111
-61 -39 -21 -95 -52 -123 -69 -29 -16 -54 -30 -57 -30 -2 0 -37 -19 -77 -43
-39 -24 -151 -90 -247 -147 -96 -57 -177 -107 -180 -110 -3 -4 -27 -19 -53
-33 -56 -32 -100 -59 -107 -67 -3 -4 -12 -10 -20 -13 -8 -4 -27 -15 -41 -25
-15 -9 -62 -39 -105 -67 -81 -51 -84 -53 -121 -83 l-22 -17 469 -705 c258
-388 473 -709 477 -715 5 -5 20 -28 33 -50 13 -22 27 -42 30 -45 8 -7 124
-182 132 -200 4 -8 16 -26 26 -39 l20 -24 48 28 c27 16 53 32 59 37 5 5 46 32
90 60 44 28 98 62 120 77 22 14 49 31 60 37 45 24 70 39 75 45 7 8 398 239
404 239 3 0 28 14 56 30 205 121 744 395 997 506 23 11 43 24 43 31 0 7 -20
56 -45 109 -25 53 -45 97 -45 99 0 2 -18 41 -40 88 -37 79 -60 113 -60 88 0
-6 -5 -11 -12 -11 -17 0 -128 -53 -468 -223 -286 -143 -333 -167 -525 -274
-49 -28 -110 -61 -135 -74 -25 -13 -47 -26 -50 -29 -15 -15 -158 -90 -172 -90
-7 0 -38 42 -68 93 -30 50 -80 136 -112 189 -61 103 -67 118 -43 118 8 0 15 4
15 9 0 5 8 11 18 14 17 6 72 37 82 47 3 3 19 12 35 20 17 8 41 22 55 31 14 9
66 38 115 64 50 26 95 51 100 56 22 16 232 125 513 265 160 80 292 150 292
154 0 8 -53 123 -146 317 l-35 72 -27 -14 c-15 -8 -148 -75 -297 -148 -148
-74 -308 -156 -355 -181 -47 -26 -101 -54 -120 -64 -19 -9 -37 -19 -40 -22 -3
-3 -19 -12 -35 -21 -74 -38 -179 -97 -288 -162 -67 -39 -122 -66 -127 -61 -13
13 -180 294 -180 303 0 3 15 15 33 25 17 11 84 50 148 87 64 38 119 69 122 69
3 0 34 17 69 37 70 42 156 89 238 130 30 15 57 30 60 33 10 12 700 350 713
350 3 0 22 9 41 21 28 16 33 24 26 37 -5 9 -21 44 -36 77 -77 176 -135 295
-142 294 -4 0 -18 -5 -32 -12z"/>
<path d="M31946 39867 c-52 -109 -193 -397 -348 -717 -53 -107 -128 -262 -168
-345 -69 -142 -138 -286 -298 -615 -39 -79 -69 -147 -66 -151 2 -4 86 -49 187
-99 197 -100 326 -168 398 -210 l45 -27 15 26 c8 14 32 58 53 96 21 39 42 75
46 80 4 6 25 44 47 85 64 120 115 214 123 225 4 6 24 42 45 80 70 131 108 200
115 210 9 13 49 85 107 195 25 47 49 90 53 95 8 11 46 80 105 190 21 39 66
121 101 182 35 62 64 115 64 117 0 2 36 67 80 145 44 77 80 144 80 149 0 4
-21 19 -47 32 -27 14 -50 27 -53 30 -7 7 -47 28 -355 185 l-281 143 -48 -101z"/>
<path d="M34990 37993 c-25 -8 -54 -18 -65 -23 -11 -5 -76 -27 -145 -50 -69
-22 -132 -44 -140 -49 -9 -5 -30 -12 -49 -16 -18 -4 -44 -13 -59 -21 -15 -8
-35 -14 -44 -14 -9 0 -20 -4 -23 -10 -3 -5 -14 -10 -23 -10 -9 -1 -35 -9 -57
-20 -22 -11 -45 -19 -51 -20 -7 0 -25 -7 -40 -15 -16 -8 -36 -15 -44 -15 -8 0
-33 -9 -55 -20 -22 -11 -45 -19 -51 -20 -10 0 -60 -21 -96 -41 -10 -5 -23 -9
-28 -9 -6 0 -30 -8 -53 -19 -40 -17 -76 -32 -87 -36 -14 -5 -67 -27 -85 -35
-11 -5 -42 -18 -70 -30 -27 -12 -59 -25 -70 -30 -74 -33 -115 -50 -119 -50 -3
0 -38 -15 -78 -34 -40 -18 -91 -41 -113 -51 -38 -16 -69 -31 -245 -113 -198
-92 -350 -168 -350 -174 0 -3 42 -35 93 -69 50 -34 148 -103 217 -152 69 -50
139 -100 155 -111 45 -32 108 -79 124 -94 15 -15 29 -11 121 30 36 16 79 36
97 44 17 8 34 14 38 14 7 0 92 36 115 49 17 9 40 -5 135 -82 33 -27 74 -60 90
-73 55 -44 180 -147 264 -218 125 -105 163 -139 264 -231 61 -55 139 -125 174
-155 79 -67 80 -40 -16 -414 l-10 -39 280 -286 c155 -157 284 -287 288 -289 4
-1 14 26 23 60 9 35 23 87 32 116 9 28 23 76 32 105 18 59 38 131 54 197 7 25
15 54 20 65 5 11 16 52 25 90 9 39 22 96 30 128 14 54 24 94 61 240 8 34 20
85 26 112 5 28 12 57 15 65 3 8 7 22 8 30 2 8 10 49 19 90 59 268 92 427 122
585 8 44 16 89 18 100 4 20 25 141 71 421 l7 40 -78 71 c-302 272 -583 504
-610 502 -11 -1 -39 -8 -64 -16z m14 -768 c-7 -38 -18 -90 -23 -115 -5 -25
-17 -79 -25 -120 -17 -81 -103 -466 -115 -515 -4 -16 -11 -30 -17 -30 -6 0
-41 28 -80 62 -168 148 -380 330 -491 418 -35 28 -63 53 -63 56 0 3 10 11 23
17 43 21 116 52 124 52 4 0 19 6 33 13 14 7 54 24 90 37 36 13 76 30 90 37 14
7 32 13 41 13 8 0 19 4 25 8 5 5 38 19 74 32 36 13 79 28 95 35 116 48 219 83
227 76 3 -3 0 -37 -8 -76z"/>
<path d="M24395 37634 c-534 -32 -749 -49 -935 -75 -41 -5 -113 -14 -160 -19
-117 -11 -280 -36 -505 -75 -184 -32 -213 -38 -285 -52 -41 -8 -106 -20 -145
-27 -104 -20 -174 -36 -229 -52 -26 -8 -58 -14 -69 -14 -11 0 -43 -7 -71 -15
-54 -15 -237 -62 -296 -75 -19 -4 -109 -29 -200 -55 -91 -26 -178 -51 -195
-55 -96 -26 -495 -155 -530 -170 -24 -11 -103 -39 -130 -47 -11 -3 -34 -11
-52 -19 -17 -8 -35 -14 -41 -14 -5 0 -23 -7 -38 -15 -16 -8 -36 -15 -44 -15
-8 0 -24 -7 -34 -15 -11 -8 -27 -15 -37 -15 -9 0 -30 -7 -45 -15 -16 -8 -37
-15 -46 -15 -9 0 -19 -4 -23 -10 -3 -5 -20 -14 -38 -19 -18 -5 -102 -38 -187
-74 -148 -61 -193 -80 -305 -132 -141 -64 -194 -89 -235 -107 -25 -11 -52 -24
-60 -29 -8 -5 -22 -12 -30 -15 -8 -3 -22 -10 -30 -15 -8 -5 -22 -12 -30 -15
-40 -16 -338 -169 -505 -259 -38 -21 -90 -49 -115 -63 -25 -13 -58 -32 -75
-43 -16 -10 -37 -22 -45 -26 -57 -27 -505 -303 -618 -380 -35 -24 -65 -43 -68
-43 -4 0 -76 -49 -179 -121 -27 -19 -88 -62 -135 -94 -47 -32 -116 -82 -155
-111 -38 -29 -91 -67 -116 -86 -105 -75 -359 -275 -528 -416 -496 -413 -1068
-969 -1416 -1377 -38 -44 -87 -101 -109 -126 -96 -108 -398 -483 -504 -626
-227 -305 -343 -473 -557 -803 -63 -96 -251 -408 -297 -490 -64 -116 -160
-286 -168 -300 -14 -25 -97 -185 -180 -350 -97 -191 -154 -312 -285 -605 -32
-71 -55 -133 -55 -149 0 -8 98 -10 356 -9 320 2 358 4 375 19 18 16 28 35 99
189 41 89 196 397 249 495 22 41 44 82 47 90 4 8 26 49 49 90 23 41 54 98 70
125 15 28 80 137 144 243 64 106 121 201 126 210 34 56 251 382 368 552 83
120 373 500 490 642 73 88 148 179 167 202 197 244 859 924 1124 1157 212 185
338 292 471 400 132 107 545 420 600 455 17 10 32 21 35 24 13 13 442 300 517
346 232 140 482 288 538 319 39 21 84 46 100 55 92 51 200 107 370 192 219
110 413 202 510 242 22 9 48 21 57 26 36 20 521 216 563 227 11 3 25 9 30 13
6 5 26 13 45 18 19 6 60 20 90 32 30 12 64 24 75 27 11 3 34 11 52 19 17 8 39
14 50 14 10 0 27 7 37 15 11 8 28 15 39 15 10 0 33 6 50 14 18 8 43 16 57 19
14 3 57 16 95 29 84 29 141 47 300 92 219 62 309 86 440 116 188 44 253 60
316 76 30 8 68 14 83 14 15 0 36 5 46 10 11 6 47 13 82 16 35 4 68 11 74 15 6
5 44 13 85 18 41 5 99 15 129 21 132 27 218 40 255 40 22 0 56 5 75 10 39 12
218 35 380 50 58 6 116 12 130 15 30 6 345 31 590 46 219 13 1311 6 1425 -10
44 -6 145 -15 225 -21 274 -20 497 -46 835 -100 39 -6 102 -15 142 -20 40 -5
81 -14 92 -19 11 -6 36 -11 56 -11 20 0 64 -6 98 -14 63 -15 135 -30 217 -45
25 -5 88 -19 140 -31 52 -12 113 -26 135 -30 73 -16 429 -108 550 -144 28 -8
93 -26 145 -41 52 -15 111 -32 130 -39 83 -31 107 -38 140 -45 19 -4 44 -12
55 -18 11 -6 49 -20 85 -31 105 -34 154 -51 172 -62 10 -6 25 -10 34 -10 9 0
30 -6 47 -14 42 -18 93 -37 207 -81 152 -57 429 -172 507 -210 29 -14 55 -25
58 -25 18 0 460 -214 685 -332 165 -86 232 -123 278 -151 20 -13 44 -26 52
-29 17 -6 368 -217 478 -287 108 -68 427 -280 500 -331 127 -90 516 -383 595
-448 45 -37 91 -74 102 -83 95 -78 243 -202 300 -253 39 -35 113 -100 165
-146 127 -113 703 -688 820 -820 51 -58 107 -121 124 -140 374 -419 845 -1047
1143 -1525 280 -448 482 -821 762 -1405 42 -88 4 -80 411 -83 l362 -2 -6 28
c-3 16 -12 43 -20 60 -8 18 -31 67 -50 110 -20 42 -36 81 -36 85 0 14 -342
708 -406 822 -20 36 -54 99 -77 140 -22 41 -51 92 -64 112 -12 21 -23 40 -23
42 0 17 -301 505 -413 670 -34 50 -66 99 -72 108 -5 9 -27 41 -47 70 -20 29
-55 80 -78 113 -99 145 -381 521 -495 659 -361 440 -538 638 -869 974 -157
160 -245 244 -516 497 -158 147 -536 463 -755 631 -173 132 -505 375 -580 424
-13 8 -77 51 -142 95 -65 44 -125 84 -133 88 -8 4 -60 37 -115 72 -125 81
-313 195 -319 195 -3 0 -22 12 -43 26 -21 14 -47 30 -58 35 -11 5 -27 13 -35
19 -27 17 -172 100 -175 100 -2 0 -30 15 -62 34 -66 38 -273 147 -378 199
-100 49 -383 186 -430 207 -147 67 -187 85 -270 120 -27 12 -63 27 -80 35 -33
14 -160 66 -240 97 -27 11 -64 24 -82 29 -18 5 -35 14 -38 19 -4 6 -14 10 -23
10 -9 0 -30 7 -46 15 -15 8 -36 15 -45 15 -10 0 -26 7 -37 15 -10 8 -25 15
-32 15 -8 0 -28 6 -45 13 -42 18 -93 36 -137 49 -19 5 -39 14 -45 19 -5 5 -18
9 -30 9 -11 0 -32 6 -47 14 -15 8 -41 17 -59 21 -19 4 -40 11 -49 16 -8 4 -69
24 -135 44 -66 20 -140 43 -165 51 -71 23 -286 84 -388 109 -51 13 -107 28
-125 34 -30 9 -53 14 -192 47 -182 44 -300 69 -385 84 -30 6 -73 14 -95 20
-36 8 -84 17 -350 65 -188 33 -395 65 -465 71 -25 3 -99 11 -165 19 -496 60
-783 77 -1405 80 -294 1 -562 1 -595 -1z"/>
<path d="M14520 37510 c-69 -10 -155 -33 -207 -56 -17 -8 -35 -14 -40 -14 -20
0 -204 -99 -289 -156 -82 -53 -130 -90 -254 -192 -121 -99 -644 -640 -892
-922 -31 -36 -94 -108 -140 -160 -46 -52 -98 -114 -116 -136 l-32 -42 63 -54
c34 -30 89 -77 122 -103 33 -27 80 -67 105 -89 25 -23 65 -57 89 -76 24 -19
80 -66 126 -105 45 -38 131 -110 190 -160 59 -49 145 -121 190 -160 46 -38
131 -110 190 -160 59 -49 145 -121 190 -160 45 -38 103 -88 130 -110 102 -85
180 -151 203 -172 33 -31 42 -29 77 14 17 20 50 60 75 88 25 28 72 82 105 120
74 84 171 192 241 266 l53 56 -205 194 c-112 106 -204 199 -204 207 0 7 91
105 203 218 l202 204 100 -15 c55 -8 143 -22 195 -31 52 -8 106 -17 120 -19
21 -3 87 -15 165 -30 133 -25 128 -25 160 3 17 15 57 52 90 83 33 31 74 67 91
80 17 13 72 60 121 104 50 44 138 121 197 170 l107 90 -38 7 c-21 5 -51 10
-68 12 -219 34 -207 32 -350 51 -66 9 -181 22 -255 30 -144 15 -180 22 -180
36 0 5 11 32 23 61 69 155 82 215 82 379 0 86 -5 156 -11 170 -6 13 -22 51
-34 84 -66 171 -214 319 -375 373 -72 24 -221 35 -315 22z m-130 -651 c62 -13
142 -82 185 -161 27 -47 30 -62 30 -138 -1 -76 -4 -92 -34 -153 -51 -102 -83
-142 -247 -310 -82 -84 -197 -203 -256 -264 l-107 -112 -88 82 c-259 242 -413
391 -413 399 0 6 113 124 251 263 237 239 354 340 419 360 14 4 30 11 36 16
32 26 145 35 224 18z"/>
<path d="M25453 33231 c-25 -18 -46 -45 -57 -70 -18 -46 -25 -17 61 -251 19
-52 52 -150 74 -217 21 -68 49 -151 63 -185 13 -35 30 -89 36 -121 6 -32 25
-97 41 -145 16 -48 36 -124 44 -169 8 -45 24 -108 35 -140 12 -32 30 -98 40
-148 10 -49 32 -146 48 -215 17 -69 40 -188 52 -265 12 -77 28 -165 35 -195 8
-30 17 -91 21 -135 3 -44 12 -105 19 -135 6 -30 13 -93 14 -140 1 -47 9 -113
17 -148 8 -35 19 -128 24 -206 5 -77 15 -177 21 -221 7 -49 12 -244 13 -505
l1 -425 -25 -50 c-17 -34 -36 -55 -60 -67 -80 -40 -410 -198 -475 -228 -38
-18 -86 -41 -105 -52 -19 -10 -60 -31 -90 -45 -30 -13 -84 -38 -120 -55 -36
-16 -123 -58 -195 -93 -173 -85 -261 -125 -273 -125 -6 0 -41 -20 -77 -45 -80
-53 -174 -90 -209 -81 -61 15 -70 64 -36 200 10 43 24 113 30 155 27 189 85
550 130 806 28 164 39 241 80 555 11 80 24 174 29 210 6 36 19 121 30 190 10
69 22 136 25 150 3 14 26 111 52 215 40 164 47 209 51 326 7 168 -6 248 -56
355 -62 132 -185 243 -342 309 -81 34 -139 40 -224 22 -66 -14 -307 -99 -330
-116 -5 -4 -39 -18 -75 -31 -36 -13 -69 -26 -75 -30 -5 -4 -28 -13 -50 -20
-55 -18 -276 -114 -355 -154 -36 -19 -101 -46 -145 -60 -44 -15 -120 -44 -170
-65 -49 -21 -110 -47 -135 -57 -25 -10 -71 -33 -102 -51 -31 -18 -60 -33 -65
-33 -12 0 -279 -137 -313 -160 -27 -18 -117 -68 -250 -138 -47 -24 -89 -48
-95 -52 -5 -4 -113 -65 -239 -134 -126 -70 -245 -137 -265 -150 -20 -12 -65
-37 -101 -55 -36 -18 -90 -49 -121 -67 -31 -19 -59 -34 -62 -34 -3 0 -43 -22
-90 -50 -47 -27 -88 -50 -91 -50 -3 0 -29 -14 -58 -31 -110 -65 -318 -179
-344 -189 -15 -6 -40 -20 -57 -32 -29 -21 -80 -48 -289 -157 -224 -117 -274
-144 -303 -166 -16 -13 -53 -34 -81 -48 -54 -27 -114 -87 -114 -114 0 -28 138
-7 260 39 58 22 149 55 202 73 54 19 112 41 130 49 17 9 75 29 128 45 53 16
132 43 176 61 43 18 142 54 219 81 77 26 205 71 285 99 80 28 213 73 295 101
83 27 159 54 170 59 11 6 81 30 155 55 74 24 171 57 215 74 44 16 107 37 140
47 33 9 66 22 72 27 7 5 86 33 175 63 180 59 305 102 478 164 63 23 136 48
161 55 25 7 72 24 105 38 32 13 122 47 199 75 77 27 205 75 285 106 163 63
205 68 239 32 27 -28 26 -71 -2 -216 -9 -47 -26 -157 -38 -245 -12 -88 -27
-196 -34 -240 -25 -159 -96 -613 -115 -735 -11 -69 -31 -199 -45 -290 -13 -91
-31 -201 -39 -245 -7 -44 -32 -190 -55 -325 -85 -506 -110 -627 -143 -698 -36
-78 -94 -134 -167 -163 -31 -13 -76 -35 -101 -49 -64 -38 -214 -112 -290 -145
-36 -15 -71 -32 -78 -38 -7 -6 -84 -47 -171 -91 -171 -88 -321 -169 -361 -196
-14 -10 -56 -34 -95 -55 -38 -21 -79 -46 -90 -55 -11 -10 -69 -48 -130 -84
-159 -96 -438 -293 -509 -358 -11 -10 -38 -30 -60 -45 -69 -47 -328 -286 -445
-411 -138 -148 -140 -151 -312 -395 -22 -31 -73 -124 -114 -205 -113 -227
-151 -371 -161 -617 -8 -180 9 -289 62 -404 66 -144 232 -271 402 -307 88 -18
327 -18 469 1 96 12 337 73 528 133 62 20 199 85 225 107 8 7 63 38 122 68
255 131 624 443 858 727 34 41 71 84 81 95 35 36 242 321 314 431 39 59 73
112 78 118 25 37 226 396 232 415 4 14 36 77 72 142 35 64 79 155 98 201 18
45 57 135 85 198 29 63 61 137 71 164 38 93 80 138 201 213 61 38 179 92 266
123 29 11 74 33 99 50 26 18 68 40 94 51 27 10 150 68 274 129 125 60 229 110
232 110 4 0 88 41 189 90 100 50 201 97 225 105 23 9 56 26 73 39 17 13 54 35
83 50 110 55 137 27 110 -113 -9 -48 -17 -130 -17 -182 0 -52 -5 -110 -10
-129 -6 -19 -17 -69 -26 -110 -8 -41 -24 -104 -34 -140 -10 -36 -42 -164 -70
-285 -29 -121 -81 -337 -116 -480 -73 -301 -92 -381 -140 -595 -9 -41 -27
-111 -40 -155 -13 -44 -28 -105 -34 -135 -16 -80 -106 -460 -151 -640 -22 -85
-53 -213 -68 -285 -57 -256 -105 -460 -140 -595 -11 -41 -32 -129 -47 -195
-14 -66 -38 -142 -52 -168 -24 -44 -40 -59 -127 -115 -34 -21 -84 -42 -102
-42 -10 0 -50 -11 -89 -24 -40 -14 -97 -29 -128 -35 -31 -6 -84 -21 -118 -35
-35 -13 -79 -27 -98 -30 -19 -3 -89 -24 -155 -45 -66 -22 -151 -46 -190 -54
-231 -50 -272 -60 -295 -72 -14 -7 -52 -16 -85 -20 -61 -6 -127 -19 -320 -61
-60 -13 -137 -26 -170 -30 -112 -11 -290 -45 -345 -65 -38 -14 -97 -23 -192
-29 -76 -5 -142 -12 -148 -15 -5 -3 -44 -6 -87 -6 -43 0 -121 -9 -173 -20 -60
-13 -129 -21 -189 -20 -59 0 -130 -7 -193 -20 -72 -15 -129 -20 -202 -18 -55
2 -173 -1 -261 -5 -88 -5 -245 -9 -350 -11 -106 -1 -216 -7 -250 -15 -73 -15
-385 -8 -610 14 -82 8 -197 18 -255 21 -156 8 -235 15 -340 30 -52 8 -158 19
-235 25 -129 10 -234 22 -440 50 -104 15 -281 58 -326 81 -51 25 -157 51 -180
44 -11 -4 -35 -20 -53 -36 -50 -43 -81 -52 -117 -33 -17 8 -33 13 -36 11 -32
-33 -31 -953 2 -985 4 -4 16 5 27 20 41 57 77 0 108 -167 10 -55 21 -127 25
-160 3 -33 26 -118 50 -190 24 -71 51 -159 61 -195 10 -36 42 -111 71 -168 30
-57 65 -135 80 -174 23 -65 93 -201 140 -271 43 -65 214 -286 276 -358 37 -43
95 -102 130 -131 105 -90 147 -136 144 -160 -1 -17 7 -26 33 -39 32 -15 416
-17 5177 -22 4008 -4 5146 -2 5159 7 14 11 17 47 20 297 3 156 11 347 19 424
8 77 20 221 26 320 5 99 14 212 19 250 4 39 15 133 24 210 34 301 79 581 138
855 11 52 26 130 34 174 7 43 19 95 25 115 7 19 20 69 30 111 9 41 34 138 54
215 20 77 42 164 50 192 42 166 212 628 306 830 129 280 153 329 164 343 7 8
15 24 19 35 3 11 26 52 50 90 24 39 75 119 113 178 37 59 95 142 128 184 33
41 70 90 83 108 29 40 99 76 212 109 114 32 173 53 245 86 33 15 78 31 100 35
21 4 59 18 84 31 25 13 61 24 80 24 19 0 54 11 77 25 24 14 65 28 91 31 26 4
59 14 73 23 30 19 152 63 269 96 45 13 88 29 95 34 6 5 42 17 80 27 37 9 89
31 115 48 l46 31 3 143 c3 159 -4 181 -70 237 -28 23 -35 25 -96 19 -37 -3
-83 -10 -102 -14 -19 -5 -64 -10 -100 -11 -36 -1 -91 -10 -122 -20 -31 -10
-88 -20 -125 -23 -37 -2 -95 -11 -128 -20 -32 -9 -84 -16 -115 -16 -30 0 -71
-5 -90 -10 -19 -6 -70 -15 -112 -20 -43 -5 -98 -16 -123 -25 -25 -8 -63 -15
-85 -15 -21 0 -76 -9 -122 -20 -46 -11 -99 -20 -119 -20 -20 0 -91 -11 -159
-25 -68 -14 -134 -25 -147 -25 -14 0 -38 -9 -54 -21 -18 -13 -57 -24 -102 -30
-39 -5 -85 -16 -100 -25 -15 -9 -58 -20 -94 -25 -37 -5 -98 -21 -136 -34 -37
-14 -78 -25 -90 -25 -12 0 -49 -14 -82 -30 -33 -17 -67 -30 -77 -30 -10 0 -63
-15 -117 -34 -55 -19 -122 -38 -148 -42 -26 -4 -68 -17 -93 -29 -25 -12 -66
-25 -91 -28 -25 -3 -71 -20 -103 -37 -32 -16 -70 -30 -85 -30 -15 0 -48 -13
-74 -30 -26 -16 -75 -37 -109 -45 -34 -9 -78 -25 -98 -35 -19 -10 -61 -26 -93
-35 -31 -9 -76 -27 -100 -40 -23 -13 -58 -26 -77 -30 -19 -4 -39 -11 -45 -15
-5 -4 -68 -27 -140 -50 -71 -23 -139 -48 -150 -54 -11 -7 -49 -23 -85 -36 -36
-13 -81 -34 -101 -46 -20 -13 -63 -30 -95 -40 -32 -9 -74 -27 -94 -40 -19 -13
-62 -30 -95 -38 -33 -9 -82 -26 -110 -40 -128 -63 -266 -126 -275 -126 -6 0
-32 -11 -58 -23 -26 -13 -96 -41 -156 -62 -59 -21 -125 -50 -145 -64 -20 -13
-67 -38 -106 -53 -38 -16 -76 -35 -85 -42 -8 -8 -38 -19 -67 -26 -29 -6 -81
-29 -116 -50 -35 -22 -86 -44 -113 -51 -27 -6 -71 -27 -99 -45 -27 -19 -77
-43 -110 -54 -33 -12 -101 -41 -151 -65 -51 -25 -98 -45 -105 -45 -8 0 -59
-20 -114 -45 -170 -77 -222 -55 -190 78 44 188 67 286 99 417 44 183 145 607
161 680 7 30 22 91 33 135 11 44 32 134 46 200 15 66 38 163 51 215 14 52 36
145 50 205 13 61 34 146 46 190 11 44 37 148 56 230 41 177 50 214 97 405 47
190 168 695 181 757 6 27 71 79 127 100 38 14 111 17 593 19 303 2 586 -1 630
-6 44 -5 150 -16 235 -25 85 -8 184 -22 220 -30 36 -8 85 -15 110 -15 45 0
194 -25 365 -60 50 -11 142 -29 205 -40 63 -12 160 -32 215 -45 55 -13 123
-29 150 -35 59 -13 196 -54 387 -116 75 -24 144 -44 152 -44 8 0 50 -16 91
-36 122 -58 198 -49 245 29 40 64 17 138 -68 227 -52 55 -98 107 -187 215 -69
83 -228 270 -360 420 -134 153 -137 156 -174 205 -19 25 -38 46 -42 48 -5 2
-49 54 -100 115 -51 62 -118 139 -149 172 -32 33 -74 83 -95 110 -20 28 -74
91 -119 141 -44 50 -106 121 -136 159 -30 38 -73 87 -95 109 -22 23 -67 75
-99 116 -33 41 -82 100 -111 130 -46 50 -139 158 -238 278 -21 26 -68 79 -105
120 -36 40 -72 83 -81 95 -12 18 -134 161 -151 177 -3 3 -30 34 -60 70 -30 36
-87 101 -125 145 -39 44 -93 107 -119 140 -46 57 -109 131 -291 338 -44 50
-120 139 -170 197 -112 133 -202 238 -269 314 -28 32 -55 66 -60 75 -5 8 -23
29 -40 46 -29 28 -61 65 -165 190 -73 87 -117 138 -312 361 -48 55 -99 115
-115 134 -15 19 -48 58 -74 86 -45 51 -65 74 -180 214 -34 41 -67 80 -74 85
-6 6 -50 55 -96 110 -47 55 -127 150 -179 210 -236 276 -271 299 -358 236z
m-2602 -6611 c5 0 9 -17 9 -38 0 -45 -59 -153 -146 -269 -33 -42 -68 -91 -79
-109 -11 -17 -54 -76 -95 -129 -187 -243 -421 -479 -598 -603 -26 -17 -66 -46
-90 -62 -62 -43 -273 -153 -372 -193 -235 -95 -314 -30 -196 161 155 250 521
612 831 820 39 26 72 49 75 52 3 3 37 27 75 52 39 25 149 97 246 161 97 63
191 123 210 133 40 21 89 33 107 28 8 -2 18 -4 23 -4z"/>
<path d="M9145 29099 c-213 -16 -502 -54 -645 -83 -234 -49 -418 -99 -605
-163 -38 -13 -97 -33 -130 -44 -33 -11 -73 -27 -90 -34 -16 -7 -48 -21 -70
-31 -22 -9 -53 -23 -70 -30 -273 -113 -705 -361 -965 -554 -515 -381 -966
-877 -1294 -1422 -94 -157 -316 -597 -316 -626 0 -4 -13 -38 -30 -77 -138
-326 -262 -821 -310 -1235 -36 -304 -38 -805 -6 -1070 57 -466 153 -859 302
-1237 24 -61 44 -114 44 -117 0 -16 165 -352 238 -486 50 -91 212 -349 279
-445 245 -348 605 -730 941 -997 433 -343 970 -638 1442 -794 41 -13 82 -27
90 -31 24 -10 158 -50 265 -78 307 -81 512 -115 879 -145 241 -19 328 -20
2767 -20 2009 0 2519 3 2519 13 0 6 -32 39 -70 72 -118 101 -261 269 -384 450
-26 39 -57 75 -69 82 -17 10 -543 12 -2347 13 -1292 1 -2369 5 -2425 10 -227
20 -408 47 -511 76 -28 8 -59 14 -69 14 -10 0 -43 7 -74 16 -31 8 -81 22 -111
30 -30 9 -68 20 -85 26 -16 5 -46 14 -65 18 -53 13 -212 70 -305 109 -11 5
-60 26 -110 46 -107 45 -342 165 -438 223 -37 23 -70 42 -73 42 -2 0 -17 8
-32 19 -15 10 -61 40 -102 67 -217 139 -435 319 -656 539 -194 194 -342 368
-474 558 -123 179 -133 195 -210 327 -502 864 -676 1882 -496 2895 20 108 61
285 86 365 76 246 136 419 175 505 8 17 26 57 40 90 117 263 297 566 493 825
230 304 530 602 837 832 254 190 552 365 820 483 70 31 103 44 145 60 25 9 54
22 65 28 11 5 33 14 50 18 34 8 86 26 132 46 17 7 39 13 48 13 9 0 25 5 36 11
21 11 88 30 189 55 206 50 298 67 470 90 63 8 149 20 190 26 50 7 780 12 2227
15 1662 3 2153 7 2161 16 5 7 23 49 41 94 47 124 169 402 197 451 14 23 22 47
19 52 -8 12 -4387 11 -4550 -1z"/>
<path d="M35590 29095 c0 -13 15 -73 46 -180 7 -27 32 -126 55 -220 22 -93 44
-177 48 -185 7 -13 307 -16 2567 -21 1850 -4 2581 -9 2639 -17 44 -7 132 -19
195 -27 139 -18 262 -39 350 -60 36 -9 90 -22 120 -29 101 -25 168 -44 189
-55 11 -6 27 -11 36 -11 9 0 31 -6 48 -13 46 -20 98 -38 132 -46 17 -4 39 -13
50 -18 11 -6 40 -19 65 -28 25 -9 59 -23 75 -30 255 -112 431 -206 650 -345
96 -61 325 -230 430 -318 115 -96 362 -340 469 -462 167 -191 354 -454 486
-685 61 -106 180 -337 180 -349 0 -3 13 -34 28 -68 94 -207 190 -499 246 -753
137 -615 136 -1244 -1 -1860 -151 -676 -462 -1294 -929 -1841 -231 -270 -584
-581 -869 -765 -146 -94 -163 -105 -185 -115 -8 -4 -32 -18 -52 -31 -66 -40
-241 -130 -338 -173 -52 -23 -110 -48 -127 -56 -53 -24 -95 -41 -138 -57 -164
-61 -185 -68 -225 -77 -19 -4 -48 -13 -65 -18 -16 -6 -55 -17 -85 -26 -30 -8
-80 -22 -111 -30 -31 -9 -64 -16 -74 -16 -10 0 -41 -6 -69 -14 -103 -29 -284
-56 -511 -76 -56 -5 -1197 -9 -2591 -10 -1977 0 -2493 -3 -2506 -12 -8 -7 -23
-47 -32 -88 -44 -200 -87 -391 -101 -444 -9 -33 -13 -66 -11 -73 8 -19 5038
-13 5241 6 287 26 564 71 800 129 149 36 300 80 342 98 17 8 40 14 51 14 12 0
23 4 27 9 3 5 20 13 38 17 17 3 45 12 62 20 16 7 71 29 120 49 103 41 94 37
245 108 994 461 1794 1235 2288 2212 66 131 152 313 152 322 0 4 20 56 44 117
68 169 132 370 182 571 9 33 22 83 30 111 8 28 14 59 14 70 0 10 6 51 15 89
18 87 39 218 62 400 25 198 26 831 1 1015 -10 69 -19 143 -22 165 -11 100 -67
382 -107 540 -23 94 -98 340 -124 410 -15 39 -30 81 -35 95 -4 14 -19 51 -34
84 -14 32 -26 63 -26 67 0 29 -228 479 -317 628 -323 538 -765 1027 -1268
1403 -299 223 -667 435 -985 567 -128 54 -157 66 -223 95 -21 9 -42 16 -48 16
-6 0 -25 6 -42 14 -167 73 -615 183 -892 220 -66 9 -133 19 -150 22 -16 3
-127 11 -245 19 -323 22 -5280 22 -5280 0z"/>
<path d="M10086 27713 c-1 -1 -42 -7 -91 -13 -50 -6 -99 -14 -110 -19 -11 -4
-51 -18 -90 -30 -38 -13 -84 -29 -102 -37 -17 -8 -35 -14 -39 -14 -18 0 -223
-106 -289 -149 -164 -107 -242 -173 -380 -321 -217 -234 -365 -563 -405 -900
-38 -330 12 -675 147 -1005 64 -156 265 -524 291 -533 5 -1 35 37 67 85 70
107 224 262 332 333 135 89 269 146 433 186 94 23 404 27 490 6 85 -21 192
-52 225 -67 100 -43 136 -61 183 -91 35 -23 54 -30 56 -22 28 101 46 150 79
218 13 26 148 231 212 320 70 98 169 273 199 350 15 41 32 84 37 95 42 94 73
308 66 460 -9 187 -32 281 -110 445 -141 297 -433 543 -762 641 -38 11 -81 24
-95 29 -46 16 -333 44 -344 33z"/>
<path d="M39546 27713 c-1 -1 -42 -7 -91 -13 -80 -10 -240 -54 -287 -80 -10
-6 -23 -10 -29 -10 -23 0 -245 -114 -329 -168 -297 -193 -513 -444 -649 -754
-12 -26 -21 -50 -21 -53 0 -4 -6 -21 -14 -38 -60 -134 -113 -467 -102 -642 21
-339 94 -611 247 -918 63 -126 196 -347 208 -347 4 0 32 37 62 83 66 101 190
232 286 303 40 30 77 54 82 54 5 0 11 3 13 8 3 7 160 86 203 102 11 4 38 15
60 23 141 56 472 73 640 32 159 -38 328 -108 404 -166 26 -21 41 -17 41 10 0
27 36 125 71 194 27 55 114 194 129 207 3 3 19 25 35 50 16 25 32 47 35 50 27
26 162 253 191 319 11 25 24 55 29 66 12 26 45 126 63 195 43 157 46 394 6
560 -28 119 -119 322 -171 385 -5 6 -30 38 -57 72 -59 75 -124 137 -216 207
-70 53 -189 126 -205 126 -4 0 -10 4 -12 8 -3 8 -155 65 -253 95 -59 18 -203
37 -299 40 -37 1 -69 1 -70 0z"/>
<path d="M11170 24730 c0 -5 22 -56 49 -112 92 -194 115 -301 116 -528 0 -178
-7 -229 -47 -360 -40 -133 -126 -299 -205 -398 -53 -67 -192 -202 -244 -237
-24 -17 -46 -32 -49 -35 -9 -9 -44 -29 -88 -51 -23 -12 -45 -25 -48 -31 -3 -5
23 -39 58 -76 67 -72 133 -176 193 -307 155 -337 250 -491 394 -634 193 -194
375 -291 636 -342 317 -61 697 40 965 257 249 202 378 397 444 674 83 351 60
720 -67 1065 -43 118 -133 280 -216 390 -98 130 -264 292 -381 370 -25 16 -47
33 -50 36 -9 10 -124 74 -200 111 -233 111 -412 162 -700 198 -171 22 -560 28
-560 10z"/>
<path d="M40628 24734 c-3 -3 13 -42 36 -87 61 -122 79 -170 112 -307 22 -94
26 -382 6 -475 -34 -155 -92 -304 -165 -425 -100 -166 -304 -357 -472 -441
l-45 -22 63 -66 c89 -93 98 -108 281 -481 145 -298 254 -438 477 -615 24 -19
146 -88 209 -118 68 -32 166 -61 288 -82 171 -31 434 -3 597 65 200 82 345
181 495 336 172 180 268 368 305 598 2 15 6 35 9 45 3 9 12 83 22 166 13 125
14 167 4 260 -20 193 -46 340 -70 390 -5 11 -16 47 -25 80 -36 129 -129 309
-234 450 -56 76 -229 253 -301 309 -121 94 -182 132 -340 212 -280 142 -631
213 -1046 214 -110 0 -203 -3 -206 -6z"/>
<path d="M9940 24694 c-163 -52 -316 -178 -387 -319 -78 -155 -91 -317 -39
-475 36 -110 71 -166 156 -252 61 -62 94 -86 161 -117 106 -51 228 -76 318
-67 80 9 92 11 111 18 8 4 29 9 45 13 55 12 174 86 235 146 125 123 186 263
189 433 3 151 -41 288 -128 397 -43 54 -150 149 -168 149 -6 0 -13 3 -15 8 -5
12 -69 41 -128 59 -74 22 -288 27 -350 7z"/>
<path d="M39400 24694 c-66 -21 -178 -81 -236 -128 -147 -118 -234 -319 -221
-512 23 -339 297 -594 632 -587 50 1 97 3 105 6 8 2 35 9 60 16 154 41 308
169 380 314 68 138 85 272 54 421 -45 220 -218 401 -451 470 -65 20 -259 19
-323 0z"/>
<path d="M8821 24164 c-72 -31 -269 -34 -551 -7 -175 16 -380 10 -525 -17
-387 -72 -728 -343 -870 -695 -66 -163 -89 -285 -89 -485 -1 -202 16 -298 88
-497 100 -276 400 -564 764 -733 48 -23 94 -44 102 -49 13 -7 47 -17 210 -66
172 -52 495 -68 670 -34 240 46 322 74 514 170 334 169 618 445 859 835 44 71
139 255 135 260 -3 2 -52 8 -109 14 -103 9 -185 24 -288 53 -48 14 -70 23
-151 60 -72 32 -225 129 -250 157 -3 3 -26 23 -52 43 -95 77 -229 264 -301
418 -28 60 -73 207 -83 268 -14 93 -25 240 -20 279 6 47 1 50 -53 26z"/>
<path d="M38255 24158 c-51 -16 -86 -19 -225 -19 -91 0 -188 5 -215 10 -93 16
-385 22 -495 10 -223 -26 -451 -113 -614 -236 -187 -141 -341 -357 -404 -568
-53 -177 -56 -202 -56 -400 1 -171 3 -201 27 -297 36 -144 67 -225 132 -338
89 -157 232 -305 415 -431 36 -24 67 -46 70 -49 10 -10 108 -62 200 -106 52
-25 102 -49 110 -53 13 -7 48 -18 210 -66 140 -42 368 -62 538 -47 141 13 224
26 292 47 25 7 79 24 120 36 41 12 82 26 90 30 8 4 65 32 126 62 186 92 346
209 509 372 93 92 138 145 263 310 52 68 248 413 239 421 -2 2 -51 9 -108 14
-115 10 -201 24 -239 39 -14 6 -45 15 -70 21 -88 23 -296 135 -366 198 -11 9
-41 34 -67 56 -51 41 -172 187 -225 271 -56 90 -100 195 -146 351 -19 62 -40
281 -33 341 5 49 6 49 -78 21z"/>
<path d="M7895 17210 c-3 -6 -3 -20 1 -33 26 -87 380 -790 589 -1172 19 -34
59 -107 185 -330 34 -60 366 -611 413 -685 216 -339 620 -929 741 -1082 11
-14 43 -57 71 -95 167 -228 561 -725 705 -888 19 -23 53 -63 75 -89 22 -27 63
-74 91 -105 28 -31 81 -92 119 -136 38 -44 100 -114 139 -155 39 -41 116 -124
170 -185 129 -142 836 -850 986 -986 63 -57 144 -131 180 -165 76 -70 272
-243 375 -329 127 -107 190 -160 195 -165 29 -29 391 -319 585 -468 403 -310
1043 -756 1433 -998 35 -21 74 -46 87 -54 13 -8 144 -87 292 -176 309 -186
393 -234 631 -363 326 -177 1130 -581 1157 -581 2 0 37 -15 77 -34 40 -19 137
-61 215 -95 79 -33 162 -69 185 -80 24 -11 84 -36 133 -56 50 -19 99 -40 110
-45 11 -5 45 -19 75 -31 30 -11 69 -27 85 -34 17 -7 50 -21 75 -30 25 -9 59
-23 75 -30 62 -27 367 -139 490 -181 39 -13 115 -40 170 -59 55 -20 129 -46
165 -56 36 -11 79 -27 97 -35 17 -8 36 -14 42 -14 14 0 193 -57 239 -76 18 -8
41 -14 52 -14 11 0 34 -6 52 -14 31 -13 55 -20 198 -61 30 -8 78 -22 105 -30
140 -42 322 -91 525 -141 124 -30 250 -61 280 -69 51 -13 83 -21 250 -59 114
-26 350 -75 540 -113 118 -23 371 -67 480 -84 36 -5 101 -16 145 -24 95 -17
460 -69 595 -84 52 -6 149 -18 215 -26 200 -24 656 -65 910 -81 724 -45 1726
-45 2430 0 584 38 1300 118 1750 196 61 10 155 26 210 35 55 9 130 22 166 30
37 8 77 15 90 15 22 0 101 16 209 41 25 6 70 15 100 19 30 5 73 13 95 18 22 6
76 18 120 27 159 34 315 69 395 90 30 8 150 38 265 66 116 28 248 62 295 75
47 13 112 31 145 40 178 49 273 77 303 90 18 8 40 14 48 14 15 0 74 17 154 45
19 7 82 27 140 45 58 17 116 36 129 42 14 5 83 29 155 53 152 50 325 111 446
155 47 18 103 38 125 45 39 12 65 23 132 51 17 8 36 14 41 14 6 0 23 6 39 14
15 8 48 22 73 31 25 10 59 23 75 30 17 8 64 27 105 44 230 93 566 235 680 288
30 14 80 37 110 51 274 126 1054 515 1105 552 6 4 42 24 80 45 115 62 166 91
248 139 43 25 80 46 82 46 9 0 602 360 760 462 413 266 950 640 1235 861 41
32 131 102 200 155 321 248 770 629 1161 986 252 229 834 809 1045 1041 56 61
138 151 184 200 45 50 103 115 129 145 25 30 82 96 126 145 44 50 121 140 170
199 50 60 108 129 129 155 122 144 342 425 560 716 487 650 1002 1450 1395
2168 17 31 45 83 63 115 61 110 199 379 322 627 189 382 224 460 212 473 -4 4
-166 9 -360 10 l-353 4 -20 -29 c-11 -15 -78 -142 -149 -282 -70 -140 -152
-300 -182 -355 -30 -56 -68 -126 -84 -156 -63 -117 -186 -332 -282 -495 -55
-93 -105 -179 -110 -190 -6 -11 -19 -31 -27 -45 -9 -14 -69 -110 -134 -214
-165 -264 -348 -540 -520 -785 -305 -433 -507 -698 -919 -1205 -172 -211 -453
-528 -732 -826 -196 -209 -653 -666 -784 -785 -36 -32 -114 -104 -175 -161
-60 -56 -133 -121 -161 -145 -28 -24 -91 -80 -140 -124 -297 -265 -784 -659
-1139 -920 -66 -49 -145 -107 -175 -130 -30 -23 -116 -84 -190 -136 -74 -52
-153 -107 -175 -122 -79 -55 -382 -255 -495 -327 -63 -40 -126 -80 -140 -89
-37 -23 -34 -22 -326 -197 -261 -157 -296 -178 -393 -231 -25 -13 -62 -34 -81
-45 -39 -23 -98 -55 -198 -109 -37 -19 -112 -59 -167 -89 -115 -62 -525 -267
-665 -333 -242 -114 -347 -162 -495 -227 -66 -28 -133 -58 -150 -65 -16 -7
-82 -34 -145 -60 -63 -26 -126 -52 -140 -59 -14 -7 -54 -23 -90 -36 -36 -13
-69 -26 -75 -30 -5 -4 -39 -17 -75 -30 -36 -13 -76 -30 -90 -37 -14 -7 -32
-13 -40 -13 -9 0 -20 -4 -25 -9 -6 -5 -26 -14 -45 -19 -19 -6 -60 -20 -90 -32
-30 -11 -82 -30 -115 -41 -33 -11 -69 -24 -80 -29 -47 -22 -688 -234 -835
-277 -30 -9 -72 -22 -93 -29 -20 -8 -46 -14 -56 -14 -10 0 -32 -7 -47 -15 -16
-8 -40 -15 -54 -15 -14 -1 -36 -7 -50 -15 -14 -8 -37 -14 -51 -15 -15 0 -40
-7 -55 -15 -16 -8 -38 -15 -49 -15 -11 0 -40 -6 -65 -14 -25 -8 -74 -22 -110
-32 -36 -9 -87 -23 -115 -30 -70 -19 -248 -63 -322 -80 -229 -52 -597 -131
-718 -154 -60 -11 -144 -27 -185 -35 -41 -8 -88 -16 -105 -19 -82 -12 -177
-28 -236 -41 -37 -8 -86 -15 -109 -15 -23 0 -50 -5 -60 -10 -11 -6 -54 -13
-97 -16 -43 -3 -94 -11 -113 -16 -19 -6 -73 -14 -120 -18 -47 -4 -123 -13
-170 -19 -426 -60 -982 -106 -1610 -132 -312 -13 -1406 -6 -1585 10 -66 6
-201 16 -300 22 -333 19 -630 46 -835 74 -58 9 -124 15 -148 15 -24 0 -73 6
-110 14 -37 8 -101 17 -143 20 -42 3 -89 10 -103 16 -15 5 -49 10 -75 10 -26
0 -73 7 -104 15 -32 8 -74 15 -94 15 -19 0 -65 6 -102 14 -65 14 -156 30 -256
45 -218 33 -1183 243 -1300 283 -16 6 -48 14 -70 18 -66 14 -128 31 -163 46
-18 8 -44 14 -58 14 -13 0 -41 7 -61 15 -19 8 -44 15 -55 15 -11 0 -34 6 -51
14 -18 7 -52 18 -77 25 -25 6 -67 18 -95 27 -27 8 -68 19 -90 25 -22 5 -49 13
-60 18 -11 5 -47 17 -80 27 -94 27 -691 226 -730 243 -11 5 -29 12 -40 14 -11
3 -45 15 -75 27 -30 12 -71 26 -90 32 -19 5 -39 14 -44 19 -6 5 -17 9 -25 9
-9 0 -29 7 -45 15 -15 8 -33 15 -38 15 -6 0 -24 6 -41 14 -31 14 -361 147
-422 170 -16 6 -34 14 -40 17 -5 4 -50 23 -100 43 -49 20 -99 41 -110 46 -11
5 -46 20 -77 34 -87 39 -168 75 -218 98 -25 11 -70 32 -100 45 -82 37 -243
113 -260 124 -8 5 -22 12 -30 15 -8 4 -125 61 -260 128 -225 113 -309 156
-460 239 -30 16 -77 42 -105 57 -141 77 -259 143 -285 160 -8 6 -22 13 -30 17
-12 5 -181 106 -598 358 -9 6 -28 18 -42 26 -14 9 -72 47 -130 85 -233 150
-484 318 -500 334 -3 3 -34 25 -70 49 -341 233 -924 678 -1226 935 -314 267
-333 284 -476 410 -67 60 -159 144 -203 186 -44 42 -116 109 -160 150 -227
207 -748 739 -989 1008 -223 251 -274 309 -306 347 -19 23 -80 95 -135 160
-473 556 -997 1268 -1402 1905 -92 144 -463 757 -463 764 0 3 -20 39 -45 80
-25 42 -45 78 -45 81 0 2 -15 30 -34 62 -76 132 -224 414 -361 688 -58 116
-111 218 -119 228 -12 16 -42 17 -369 17 -229 0 -358 -4 -362 -10z"/>
<path d="M14960 17214 c0 -19 171 -232 410 -508 437 -506 1105 -1151 1585
-1531 295 -233 397 -311 555 -424 69 -50 143 -103 165 -119 72 -51 265 -182
269 -182 3 0 33 -19 68 -43 126 -86 600 -377 615 -377 3 0 25 -13 50 -30 24
-16 46 -30 49 -30 3 0 39 -20 82 -44 93 -52 308 -165 452 -236 58 -29 112 -56
120 -60 21 -12 84 -43 150 -73 52 -23 145 -66 235 -107 101 -46 150 -67 295
-127 85 -36 169 -69 187 -74 18 -5 35 -14 38 -19 4 -6 14 -10 23 -10 9 0 30
-7 46 -15 15 -8 36 -15 45 -15 10 0 26 -7 37 -15 10 -8 26 -15 34 -15 8 0 28
-7 44 -15 15 -8 33 -15 38 -15 6 0 24 -6 41 -14 18 -8 41 -16 52 -19 26 -7
105 -35 130 -46 11 -5 29 -12 40 -15 11 -3 47 -14 80 -26 62 -22 317 -103 395
-125 227 -66 381 -108 410 -115 44 -10 232 -57 285 -72 46 -13 146 -34 224
-49 30 -5 58 -12 63 -15 4 -3 45 -12 90 -20 46 -8 117 -21 158 -29 41 -8 113
-21 160 -29 47 -8 108 -19 135 -24 50 -10 187 -32 325 -53 41 -6 113 -15 160
-19 47 -5 119 -14 160 -19 112 -16 355 -39 625 -58 341 -25 1305 -25 1650 0
270 19 512 42 627 58 43 6 115 15 160 19 106 10 316 42 503 76 44 8 107 19
140 24 33 6 94 17 135 25 41 8 109 22 150 30 134 26 235 48 405 89 139 33 162
38 192 47 18 6 74 21 125 34 93 23 282 77 413 116 176 54 261 81 275 89 9 4
30 11 49 15 18 4 44 13 59 21 15 8 36 14 47 14 12 0 25 4 30 9 6 5 26 14 45
19 44 13 95 31 137 49 17 7 38 13 46 13 9 0 18 4 22 9 3 5 19 12 36 16 17 4
42 13 57 21 15 8 32 14 38 14 7 0 25 7 40 15 16 8 37 15 46 15 9 0 19 4 23 10
3 5 20 14 38 19 29 8 204 78 252 101 11 5 43 18 70 30 82 34 133 57 260 115
103 47 309 146 325 156 8 5 26 14 40 20 55 23 363 183 453 235 32 19 60 34 62
34 4 0 149 83 175 100 8 6 22 13 30 17 27 12 302 178 413 249 59 38 115 74
125 79 9 6 70 46 135 90 65 44 129 87 142 95 118 77 551 398 740 549 669 533
1359 1214 1880 1855 44 54 101 124 127 155 83 98 110 91 -376 91 l-423 0 -50
-47 c-27 -27 -96 -102 -153 -168 -120 -138 -719 -741 -860 -865 -52 -46 -126
-111 -165 -146 -57 -51 -205 -175 -300 -253 -11 -9 -56 -46 -100 -82 -90 -74
-438 -336 -560 -422 -92 -65 -419 -284 -515 -345 -110 -70 -498 -302 -504
-302 -4 0 -24 -11 -46 -25 -149 -94 -756 -398 -1000 -501 -19 -8 -42 -19 -50
-23 -8 -4 -55 -25 -105 -45 -49 -21 -126 -52 -170 -71 -44 -18 -111 -45 -150
-60 -38 -15 -84 -33 -102 -41 -17 -8 -36 -14 -42 -14 -6 0 -25 -6 -43 -14 -18
-8 -49 -21 -70 -30 -20 -9 -45 -16 -55 -16 -10 0 -23 -4 -28 -9 -6 -5 -26 -14
-45 -19 -19 -6 -60 -20 -90 -32 -30 -12 -68 -25 -85 -27 -16 -3 -36 -10 -43
-16 -7 -5 -29 -13 -50 -17 -35 -8 -58 -15 -142 -46 -19 -7 -78 -24 -130 -39
-52 -15 -117 -33 -145 -41 -210 -61 -671 -176 -825 -205 -77 -14 -153 -30
-200 -41 -25 -5 -70 -14 -100 -18 -30 -4 -80 -13 -110 -18 -156 -30 -191 -36
-255 -42 -38 -4 -97 -12 -130 -18 -194 -35 -635 -78 -1025 -102 -196 -12
-1108 -12 -1300 0 -435 27 -1012 86 -1076 110 -14 6 -44 10 -67 10 -39 0 -125
13 -257 40 -30 6 -82 15 -115 20 -33 4 -80 13 -105 19 -53 13 -136 29 -205 40
-27 5 -68 13 -90 19 -22 6 -69 17 -105 26 -310 72 -372 88 -635 162 -207 59
-222 64 -335 104 -19 6 -46 14 -60 17 -14 3 -39 11 -57 19 -17 8 -40 14 -50
14 -11 0 -28 7 -39 15 -10 8 -27 15 -37 15 -11 0 -33 6 -50 13 -42 18 -93 36
-137 49 -19 5 -39 14 -44 19 -6 5 -17 9 -25 9 -9 0 -29 7 -45 15 -15 8 -33 15
-38 15 -6 0 -24 6 -41 14 -18 8 -90 38 -162 66 -71 28 -139 55 -150 60 -11 5
-60 26 -109 46 -49 19 -96 39 -105 43 -9 5 -32 15 -51 23 -39 18 -127 58 -245
113 -162 76 -506 250 -640 325 -16 9 -61 34 -100 55 -56 31 -306 179 -538 319
-75 46 -504 333 -517 346 -3 3 -18 14 -35 24 -62 40 -436 324 -595 452 -178
144 -290 239 -476 403 -162 143 -785 767 -919 921 -60 69 -127 142 -149 162
l-41 38 -427 0 c-236 0 -428 -3 -428 -6z"/>
<path d="M15990 13502 c-19 -30 -40 -60 -45 -66 -6 -6 -22 -29 -35 -51 -13
-22 -27 -42 -30 -45 -3 -3 -33 -45 -66 -95 -33 -49 -118 -175 -189 -280 -71
-104 -178 -264 -239 -355 -61 -91 -113 -167 -116 -170 -3 -3 -32 -45 -65 -95
-33 -49 -62 -92 -65 -95 -3 -3 -58 -84 -122 -180 -65 -96 -133 -197 -152 -225
-20 -27 -35 -53 -36 -57 0 -9 237 -168 251 -168 5 0 9 -3 9 -8 0 -4 20 -18 45
-32 25 -14 45 -27 45 -31 0 -3 12 -11 28 -18 15 -7 57 -33 94 -58 37 -24 71
-42 76 -39 4 3 37 51 72 108 35 57 87 139 115 183 28 44 55 87 59 95 4 8 36
60 71 115 35 55 90 143 121 195 32 52 61 99 66 105 5 5 52 81 106 167 53 87
99 158 102 158 3 0 5 -206 5 -457 0 -252 4 -550 9 -661 l9 -204 39 -24 c22
-14 47 -28 56 -31 9 -4 50 -26 89 -50 40 -23 76 -43 79 -43 4 0 32 -16 64 -35
32 -19 65 -35 73 -35 9 0 44 16 79 37 97 56 360 214 388 233 14 9 68 43 120
75 124 77 300 190 427 276 56 37 104 65 107 61 3 -5 -13 -44 -34 -87 -134
-278 -228 -472 -267 -555 -25 -52 -79 -165 -120 -250 -114 -235 -143 -298
-143 -310 0 -6 39 -29 88 -51 87 -41 156 -73 275 -128 190 -89 205 -94 218
-71 10 18 43 92 109 245 26 61 60 137 74 170 40 88 43 96 65 148 23 51 55 125
76 172 7 17 24 55 38 85 14 30 37 82 50 115 14 33 39 92 57 130 17 39 35 79
40 90 5 11 25 55 44 98 20 44 36 81 36 84 0 3 14 34 30 70 17 35 30 66 30 68
0 2 16 38 36 82 36 78 43 95 83 188 12 28 26 59 31 70 55 124 58 135 38 135
-6 0 -32 10 -57 21 -25 12 -74 34 -108 50 -100 46 -179 83 -317 149 -71 33
-132 59 -135 58 -11 -5 -186 -123 -191 -128 -3 -3 -23 -17 -45 -30 -22 -13
-42 -27 -45 -30 -3 -3 -59 -39 -125 -80 -66 -41 -124 -78 -130 -83 -25 -19
-238 -147 -246 -147 -5 0 -9 -3 -9 -7 0 -5 -10 -13 -23 -19 -12 -6 -62 -35
-112 -66 -49 -30 -110 -65 -135 -79 -25 -13 -51 -29 -58 -36 -6 -6 -22 -15
-35 -19 -12 -4 -24 -10 -27 -14 -3 -4 -15 -10 -27 -14 -19 -6 -22 -3 -27 36
-11 94 -21 566 -20 977 1 320 -2 438 -10 445 -14 13 -41 30 -81 52 -45 25
-457 294 -465 304 -19 23 -38 13 -70 -38z"/>
<path d="M33247 13364 c-44 -30 -81 -54 -83 -54 -5 0 -86 -52 -94 -60 -3 -3
-14 -10 -25 -17 -11 -6 -49 -29 -85 -51 -327 -195 -511 -302 -519 -302 -5 0
-11 -3 -13 -7 -1 -5 -23 -19 -48 -32 -25 -13 -74 -40 -110 -59 -127 -69 -266
-143 -320 -169 -30 -15 -57 -30 -60 -33 -5 -5 -119 -61 -192 -95 -21 -10 -38
-22 -38 -28 0 -6 29 -70 64 -141 35 -72 123 -252 196 -401 73 -148 188 -382
255 -520 107 -219 295 -603 387 -792 17 -35 34 -63 37 -63 14 1 464 232 631
324 36 20 81 44 100 54 19 9 37 19 40 22 5 5 59 35 125 69 17 9 32 19 33 24 2
4 9 7 14 7 6 0 54 26 107 57 53 31 146 86 206 121 61 36 182 110 270 165 88
55 169 105 180 111 11 7 70 45 132 85 l112 74 -32 48 c-18 27 -70 108 -116
179 -46 72 -87 130 -92 130 -10 0 -173 -103 -177 -112 -2 -5 -7 -8 -11 -8 -5
0 -42 -22 -84 -50 -42 -27 -80 -50 -86 -50 -5 0 -11 -4 -13 -8 -2 -7 -78 -54
-232 -145 -17 -10 -42 -25 -56 -33 -14 -8 -38 -23 -55 -34 -16 -10 -48 -28
-70 -40 -22 -12 -92 -53 -156 -91 -64 -38 -121 -69 -127 -69 -6 0 -12 -3 -14
-7 -1 -5 -19 -16 -38 -26 -19 -9 -57 -30 -85 -46 -27 -16 -57 -30 -65 -30 -9
-1 -24 16 -35 37 -11 20 -57 106 -103 190 -46 85 -82 161 -80 170 2 8 21 25
43 37 22 12 83 46 135 75 52 29 113 63 135 74 22 12 42 23 45 26 6 6 33 21
110 63 30 17 86 50 123 74 37 23 72 43 77 43 6 0 10 5 10 10 0 6 4 10 10 10 5
0 59 32 120 70 61 39 115 70 120 70 4 0 10 4 12 8 2 4 31 25 65 46 35 20 65
41 68 47 4 5 -23 53 -58 107 -111 168 -142 216 -149 235 -11 25 -30 21 -86
-16 -27 -19 -56 -37 -63 -40 -8 -4 -41 -24 -74 -46 -90 -58 -500 -303 -580
-346 -38 -21 -74 -41 -80 -45 -5 -4 -52 -31 -104 -60 -77 -42 -96 -49 -106
-38 -7 7 -41 67 -75 133 -35 66 -70 130 -78 143 -19 30 -12 38 89 91 42 22
100 54 128 71 29 16 56 30 61 30 6 0 10 3 10 8 0 4 14 13 30 20 45 20 515 303
620 372 8 6 54 36 103 67 48 31 87 61 87 68 0 16 -222 348 -235 351 -5 1 -45
-22 -88 -52z"/>
<path d="M30363 11902 c-39 -15 -75 -30 -79 -35 -4 -4 -14 -7 -23 -7 -9 0 -29
-7 -45 -15 -15 -8 -33 -15 -40 -15 -6 0 -23 -6 -38 -14 -15 -8 -42 -17 -60
-21 -18 -4 -37 -11 -43 -15 -5 -4 -36 -15 -68 -24 -32 -9 -60 -23 -63 -31 -3
-7 1 -29 9 -47 8 -18 25 -62 37 -98 12 -36 26 -74 30 -85 8 -19 76 -214 126
-365 14 -41 29 -84 35 -95 5 -11 20 -56 34 -100 14 -44 29 -89 34 -100 5 -11
19 -49 31 -85 12 -36 26 -74 30 -85 28 -70 52 -147 47 -151 -3 -4 -33 10 -65
30 -33 20 -62 36 -65 36 -3 0 -40 20 -81 45 -42 25 -79 45 -81 45 -7 0 -488
285 -564 334 -36 23 -84 53 -106 66 -22 13 -42 27 -45 30 -3 3 -27 19 -55 35
-27 15 -52 31 -55 35 -3 3 -23 17 -45 30 -22 13 -44 28 -50 33 -5 4 -32 23
-60 41 -27 18 -84 55 -126 84 -72 48 -79 51 -110 41 -37 -12 -115 -31 -194
-49 -27 -6 -57 -14 -65 -17 -8 -4 -40 -12 -70 -19 -30 -7 -79 -18 -107 -25
-51 -11 -61 -21 -53 -54 12 -50 28 -116 29 -120 6 -20 11 -37 20 -85 7 -30 18
-83 26 -117 63 -267 73 -313 94 -408 11 -49 27 -119 36 -155 9 -36 23 -93 30
-127 52 -223 74 -317 80 -348 7 -34 32 -133 38 -155 3 -8 10 -40 16 -70 7 -30
18 -83 26 -117 34 -146 47 -202 60 -261 7 -35 17 -68 23 -74 7 -7 26 -6 59 2
26 6 73 17 103 23 30 7 60 15 65 18 6 4 30 10 55 13 25 4 54 11 65 16 11 5 40
13 65 19 146 33 187 44 206 53 24 11 24 10 -21 173 -9 30 -22 80 -30 110 -9
30 -22 80 -30 110 -9 30 -22 79 -30 107 -8 29 -24 89 -36 133 -11 44 -27 104
-35 132 -8 29 -21 78 -29 108 -9 30 -22 79 -30 107 -8 29 -23 87 -34 128 -11
41 -23 85 -27 98 -4 13 -2 22 5 22 11 0 221 -128 231 -141 3 -3 10 -8 15 -10
6 -2 93 -54 195 -115 102 -61 205 -121 230 -135 25 -13 47 -26 50 -29 3 -3 23
-15 45 -26 22 -12 83 -45 135 -74 131 -73 272 -147 420 -222 69 -35 127 -65
130 -68 3 -3 18 -11 34 -18 27 -12 55 -9 116 15 8 4 17 7 20 7 14 4 169 60
197 72 17 8 38 14 46 14 9 0 18 4 22 9 3 5 20 13 37 17 18 3 39 10 48 15 23
12 82 37 108 44 12 3 22 10 22 14 0 5 -13 42 -29 82 -16 41 -46 117 -65 169
-20 52 -41 104 -46 115 -18 39 -80 202 -80 211 0 5 -6 20 -13 34 -7 14 -21 48
-31 75 -10 28 -27 68 -36 90 -10 22 -34 85 -54 140 -20 55 -43 114 -50 130 -7
17 -22 53 -32 80 -10 28 -24 61 -31 75 -7 14 -13 32 -13 41 0 8 -4 19 -9 25
-4 5 -21 45 -36 89 -16 44 -31 85 -35 90 -4 6 -17 39 -30 75 -13 36 -27 69
-32 75 -4 5 -8 16 -8 25 0 8 -6 26 -13 40 -7 14 -26 61 -42 105 -16 44 -35 91
-42 105 -7 14 -13 29 -13 34 0 14 -33 86 -39 85 -3 0 -38 -12 -78 -27z"/>
<path d="M20404 11393 c-128 -147 -562 -599 -786 -818 -308 -302 -404 -392
-718 -675 -69 -62 -126 -117 -128 -121 -2 -5 5 -9 15 -9 10 0 31 -7 47 -15 15
-8 33 -15 40 -15 6 0 23 -6 38 -14 15 -8 42 -17 60 -21 18 -4 38 -11 43 -15 6
-4 26 -11 45 -15 19 -4 40 -10 45 -14 6 -4 51 -20 100 -35 50 -16 99 -32 110
-36 11 -4 48 -17 82 -28 62 -20 62 -20 80 0 10 11 74 73 143 138 l126 118 54
-14 c30 -7 87 -22 125 -33 39 -11 90 -25 115 -31 25 -7 54 -15 65 -20 11 -5
40 -14 65 -20 25 -6 70 -18 100 -26 61 -17 124 -33 250 -64 47 -12 112 -28
145 -36 33 -9 85 -21 116 -27 82 -18 103 -35 116 -99 7 -29 18 -78 27 -108 8
-30 20 -75 26 -100 25 -95 33 -104 102 -117 35 -7 97 -19 138 -28 92 -20 188
-39 300 -60 90 -17 108 -20 182 -31 l47 -6 -10 38 c-5 22 -14 48 -19 59 -4 11
-20 61 -35 110 -15 50 -30 99 -34 110 -5 11 -18 52 -29 90 -38 126 -54 179
-67 220 -7 22 -16 58 -20 80 -4 22 -11 45 -15 50 -4 6 -11 26 -14 45 -4 19
-11 44 -16 55 -4 11 -14 40 -20 65 -6 25 -18 69 -26 97 -36 133 -47 173 -66
248 -10 44 -24 100 -29 125 -5 25 -14 52 -18 60 -5 9 -12 36 -15 60 -4 25 -11
54 -16 65 -5 11 -14 43 -19 70 -5 28 -17 82 -26 120 -10 39 -19 79 -21 90 -13
66 -31 142 -36 155 -4 8 -11 40 -17 70 -43 233 -46 240 -97 240 -13 0 -25 4
-28 9 -4 5 -30 12 -59 16 -28 4 -56 11 -62 15 -5 4 -30 11 -55 15 -25 4 -49
11 -55 15 -5 4 -17 8 -25 8 -8 0 -31 5 -50 11 -19 6 -67 18 -107 28 -39 10
-75 22 -79 26 -4 4 -20 7 -35 7 -22 0 -41 -16 -95 -77z m231 -615 c11 -73 75
-439 90 -513 37 -193 48 -256 43 -261 -9 -8 -671 166 -687 181 -2 3 27 40 65
82 84 93 267 309 384 451 46 56 87 102 91 102 4 0 10 -19 14 -42z"/>
<path d="M26925 11019 c-51 -8 -285 -38 -340 -44 -152 -16 -155 -16 -156 -44
-1 -14 -1 -29 0 -33 2 -18 24 -228 27 -258 3 -41 28 -285 50 -485 14 -136 24
-229 59 -560 10 -88 19 -176 21 -195 1 -19 8 -82 14 -140 7 -58 14 -121 15
-140 22 -233 29 -286 38 -292 6 -4 14 -5 18 -2 7 4 128 18 239 28 32 3 117 15
355 47 44 6 80 11 81 12 1 2 -6 54 -31 227 -9 63 -19 129 -20 145 -2 17 -9 62
-15 100 -6 39 -13 84 -15 100 -4 31 -25 177 -51 348 -37 256 -44 300 -59 407
-9 63 -18 126 -20 140 -6 40 -25 172 -30 205 -7 43 -31 213 -49 335 -8 58 -15
106 -15 108 -2 4 -65 -1 -116 -9z"/>
<path d="M23126 10918 c-4 -23 -14 -101 -21 -173 -8 -71 -21 -197 -30 -280 -9
-82 -18 -168 -20 -190 -2 -22 -9 -85 -15 -140 -7 -55 -13 -116 -15 -135 -2
-30 -18 -176 -30 -290 -13 -117 -54 -500 -74 -685 -5 -49 -11 -114 -13 -144
-3 -54 -3 -54 27 -57 286 -25 372 -33 385 -37 8 -3 74 -8 146 -12 l131 -6 7
28 c3 15 13 140 21 276 8 136 17 252 20 257 3 5 45 7 93 5 48 -2 162 -7 254
-11 l166 -7 88 -141 c49 -78 133 -209 187 -293 l99 -151 87 -8 c85 -7 453 1
623 13 l88 6 -38 42 c-20 23 -60 68 -88 101 -160 185 -206 240 -274 323 -41
51 -92 113 -112 137 -21 25 -38 51 -38 57 0 7 22 22 48 34 138 62 311 248 338
361 4 15 10 32 14 37 4 6 15 46 24 91 35 176 14 341 -66 514 -23 51 -51 86
-126 160 -55 54 -119 106 -147 120 -28 14 -51 28 -53 33 -2 4 -9 7 -15 7 -7 0
-25 7 -40 15 -16 8 -47 19 -70 25 -23 6 -51 15 -62 20 -70 32 -324 60 -735 81
-252 12 -274 14 -450 29 -69 7 -141 13 -160 14 -19 2 -60 7 -91 11 l-56 7 -7
-44z m929 -468 c282 -13 357 -33 448 -119 74 -69 104 -172 86 -297 -21 -148
-120 -240 -291 -270 -68 -12 -118 -12 -346 1 -147 8 -269 15 -271 15 -5 0 6
201 24 450 8 107 15 206 15 219 0 23 2 23 58 17 31 -3 156 -11 277 -16z"/>
</g>
</svg>
